<?xml version="1.0" encoding="UTF-8"?>
<svg width="52px" height="52px" viewBox="0 0 52 52" version="1.1" xmlns="http://www.w3.org/2000/svg" xmlns:xlink="http://www.w3.org/1999/xlink">
    <!-- Generator: Sketch 52.6 (67491) - http://www.bohemiancoding.com/sketch -->
    <title>COMMUNITIES</title>
    <desc>Created with Sketch.</desc>
    <g id="Page-1" stroke="none" stroke-width="1" fill="none" fill-rule="evenodd">
        <g id="Laptop" transform="translate(-1013.000000, -1313.000000)" fill="#F17B0B" fill-rule="nonzero">
            <g id="Group-26" transform="translate(0.000000, 688.000000)">
                <g id="Group-14" transform="translate(187.000000, 599.000000)">
                    <g id="Group-15-Copy-2" transform="translate(706.000000, 26.000000)">
                        <g id="COMMUNITIES" transform="translate(120.000000, 0.000000)">
                            <path d="M51.323817,24.1984733 C50.5154478,24.1984733 50.5713727,23.3129771 50.5001955,22.7480916 C50.3578412,21.6692112 50.1443097,21.3435115 51.2678921,21.043257 L51.450919,20.7226463 L50.6679703,17.7913486 C50.5815409,17.475827 50.2256551,17.6386768 50.0070395,17.6997455 C49.2291748,17.9083969 49.056316,17.0534351 48.8326163,16.5139949 L48.5174032,15.8015267 C48.1411811,14.9669211 49.1732499,14.783715 49.2495111,14.519084 L49.2495111,14.3206107 L47.7242863,11.6895674 C47.5615956,11.4096692 47.2514666,11.653944 47.0735237,11.7608142 C46.3617521,12.1882952 45.9804458,11.4096692 45.6143919,10.9363868 C44.9382088,10.0610687 44.5975753,9.91857506 45.4262808,9.06870229 L45.4262808,8.67684478 L43.2706296,6.53435115 C43.0367618,6.30025445 42.7927259,6.64122137 42.6402034,6.78880407 C42.0707861,7.35877863 41.4962847,6.70229008 41.0336332,6.34605598 C40.5709816,5.98982188 39.7931169,5.62340967 40.1947595,4.90585242 C40.3015252,4.72264631 40.5658975,4.39694656 40.2761048,4.23409669 L37.6171294,2.70737913 C37.3680094,2.58015267 37.2104028,2.94656489 37.1087212,3.1043257 C36.7019945,3.83715013 35.9749707,3.34860051 35.4258897,3.1043257 C34.5005866,2.71755725 33.9972624,2.70737913 34.3328119,1.57760814 C34.3579781,1.51386768 34.3579781,1.44287532 34.3328119,1.37913486 L34.1752053,1.25699746 L31.2467736,0.473282443 C31.1830954,0.448091603 31.1121725,0.448091603 31.0484943,0.473282443 L30.8349628,0.982188295 C30.6265154,1.76590331 29.7876418,1.49109415 29.2283926,1.40458015 C28.1403989,1.26208651 27.7743449,1.40458015 27.7743449,0.218829517 L27.5099726,0 L24.4595229,0 C24.1290575,0 24.2002346,0.402035623 24.1951506,0.62086514 C24.1951506,1.43002545 23.3105201,1.3740458 22.7461869,1.44529262 C21.6734454,1.58778626 21.3429801,1.80661578 21.0430192,0.676844784 L20.7227219,0.493638677 L17.7993743,1.27735369 C17.4841611,1.36386768 17.6468518,1.72010178 17.7078608,1.94402036 C17.9163082,2.72264631 17.0520141,2.90076336 16.5232695,3.11959288 L15.8165819,3.42493639 C15.1912397,3.70992366 14.8912788,3.16030534 14.6980837,2.81424936 L14.3371138,2.71755725 L11.7086429,4.24427481 C11.4341025,4.41221374 11.6679703,4.70737913 11.7798201,4.8956743 C12.2068831,5.60814249 11.4290184,5.98982188 10.9561987,6.3562341 C10.0817364,7.02798982 9.93938209,7.3740458 9.09034024,6.54452926 L8.69886586,6.54452926 L6.55846695,8.67684478 L6.55846695,9.04834606 L6.8126711,9.30788804 C7.3770043,9.8778626 6.72624169,10.4580153 6.37035589,10.9160305 C6.01447008,11.3740458 5.64841611,12.1628499 4.93156042,11.7557252 C4.74853344,11.648855 4.42315213,11.3842239 4.26046148,11.6743003 L2.73523661,14.3358779 C2.60813453,14.5852417 2.9741885,14.7430025 3.13179507,14.8447837 C3.86390301,15.2519084 3.37583105,15.9796438 3.13179507,16.5292621 C2.88775909,17.0788804 2.73523661,17.9236641 1.95737192,17.7150127 L1.41845913,17.648855 L1.29644114,17.8066158 L0.513492374,20.7379135 C0.488326163,20.8016539 0.488326163,20.8726463 0.513492374,20.9363868 L1.02190066,21.1501272 C1.80484943,21.3587786 1.53030896,22.1984733 1.44387955,22.7582697 C1.30152522,23.8473282 1.44387955,24.2137405 0.259288228,24.2137405 L0,24.4732824 L0,27.5267176 C0,27.8575064 0.40164255,27.7862595 0.620258115,27.7913486 C1.4286273,27.7913486 1.37270239,28.6768448 1.44387955,29.2417303 C1.58623387,30.3206107 1.79976535,30.6463104 0.676183027,30.9465649 L0.493156042,31.2671756 L1.27610481,34.1984733 C1.36253422,34.5139949 1.71842002,34.351145 1.93703559,34.2900763 C2.71490027,34.0814249 2.88775909,34.9363868 3.11145874,35.475827 L3.4520923,36.1577608 C3.82831443,36.9923664 2.7962456,37.1755725 2.71998436,37.4402036 L2.71998436,37.6386768 L4.24520923,40.2697201 C4.39773172,40.5496183 4.72311302,40.3053435 4.89597184,40.1984733 C5.60774345,39.7709924 5.98904967,40.5496183 6.35510364,41.0229008 C7.03637075,41.8982188 7.37192022,42.0407125 6.5432147,42.8905852 L6.5432147,43.2824427 L8.69886586,45.4249364 C8.93273367,45.6590331 9.17676965,45.3180662 9.32929214,45.1704835 C9.89870943,44.6005089 10.4732108,45.2569975 10.9358623,45.6132316 C11.3985139,45.9694656 12.1763786,46.3562341 11.774736,47.0534351 C11.6679703,47.2366412 11.403598,47.562341 11.6933907,47.7251908 L14.3523661,49.2519084 C14.6065702,49.3791349 14.7590927,49.0127226 14.8607743,48.8549618 C15.267501,48.1221374 15.9945248,48.610687 16.5436058,48.8549618 C17.5604224,49.2722646 17.9417286,49.2468193 17.6366836,50.3816794 C17.6115174,50.4454198 17.6115174,50.5164122 17.6366836,50.5801527 L17.7942902,50.7022901 L20.7227219,51.4860051 C20.7864001,51.5111959 20.857323,51.5111959 20.9210012,51.4860051 L21.1345327,50.9770992 C21.3429801,50.1933842 22.1818537,50.4681934 22.7411029,50.5547074 C23.8290966,50.697201 24.1951506,50.5547074 24.1951506,51.740458 L24.4544388,52 L27.5048885,52 C27.8353539,52 27.7641768,51.6030534 27.7692609,51.3791349 C27.7692609,50.5699746 28.6538913,50.6259542 29.2182245,50.5547074 C30.2960501,50.4122137 30.6214314,50.1933842 30.9213923,51.3231552 L31.2416895,51.5063613 L34.1701212,50.7226463 C34.4853344,50.6361323 34.3226437,50.2798982 34.2616347,50.0610687 C34.0531873,49.2824427 34.9073133,49.1094148 35.446226,48.8854962 L36.1681658,48.5750636 C37.0019554,48.1984733 37.1849824,49.2315522 37.4493547,49.307888 L37.6476339,49.307888 L40.2761048,47.7811705 C40.5557294,47.6284987 40.3116934,47.302799 40.2049276,47.129771 C39.7778647,46.4173028 40.5557294,46.0356234 41.0285491,45.6692112 C41.9030113,44.9872774 42.0453657,44.6513995 42.8944075,45.480916 L43.2706296,45.480916 L45.4110285,43.2824427 L45.4110285,42.9109415 C45.1263199,42.6259542 44.6636684,42.1984733 45.1059836,41.6641221 L46.0414548,40.4478372 C46.5905358,39.6437659 47.2463825,40.4936387 47.5666797,40.4122137 C47.6348064,40.3942748 47.6931463,40.3505089 47.7293704,40.2900763 L49.2545952,37.6284987 C49.3816973,37.3791349 49.0156433,37.221374 48.8580368,37.1195929 C48.1259288,36.7124682 48.6140008,35.9847328 48.8580368,35.4402036 C49.2444271,34.5139949 49.2545952,34.0101781 50.3832616,34.346056 C50.4469398,34.3712468 50.5178627,34.3712468 50.5815409,34.346056 L50.7035589,34.1882952 L51.4865076,31.2569975 C51.5116738,31.193257 51.5116738,31.1222646 51.4865076,31.0585242 L50.9780993,30.8447837 C50.1951506,30.6361323 50.469691,29.7964377 50.5561205,29.2366412 C50.6984748,28.1475827 50.5561205,27.7811705 51.7407118,27.7811705 L52,27.5216285 L52,24.4529262 C51.938991,24.1323155 51.5424325,24.1984733 51.323817,24.1984733 Z M40.535393,40.5496183 L40.535393,40.5445293 C32.5146167,48.6058524 19.483858,48.6324427 11.4304165,40.6038168 C3.37697497,32.5751908 3.35041064,19.5316794 11.3711869,11.4703562 C11.8287544,11.0104326 12.3079292,10.5723919 12.8068048,10.1577608 L12.877982,10.0966921 C21.6367129,2.84554707 34.6095131,4.07455471 41.8535686,12.8418575 C48.6227708,21.0344784 48.0518283,33.0379135 40.535393,40.5496183 Z" id="Shape"></path>
                            <path d="M44.7656522,29.6553157 C44.8641038,29.1560531 44.9423046,28.6466014 45,28.1269607 L39.9462394,25.9159405 L44.9847164,23.7100147 C44.9235822,23.2005631 44.8437257,22.6911114 44.7452742,22.1816597 L38.1020244,25.1313849 L34.6377531,23.6030299 L36.8538678,20.597265 L44.093176,19.7872369 C43.9199625,19.3049135 43.7349041,18.827812 43.5378737,18.3556777 L38.0561737,18.9670197 L41.3166644,14.5398847 C41.0075546,14.1323234 40.6849444,13.7383899 40.3487063,13.3579568 L36.0438397,19.196273 L32.2840863,19.6140233 L32.7018367,15.8950261 L38.5605309,11.5799705 C38.1767864,11.2402936 37.777631,10.9193391 37.3633195,10.6171069 L32.9209009,13.8877866 L33.5322429,8.41627564 C33.0635474,8.21593377 32.5863185,8.03418689 32.1006837,7.87116235 L31.3008446,15.0900925 L28.2441346,17.3316798 L26.7412522,13.9030701 L29.6705993,7.22925325 C29.1713366,7.13080172 28.661885,7.05438397 28.1422443,7 L25.931224,12.0537606 L23.7252983,7.01528355 C23.2158466,7.07641775 22.706395,7.1562743 22.1969433,7.25472583 L25.1364794,13.8979756 L23.6081244,17.3622469 L20.6023596,15.1461322 L19.7974259,7.90682397 C19.3117911,8.08003754 18.8329066,8.26509586 18.3607722,8.46212629 L18.9721142,13.9438263 L14.5449792,10.6833356 C14.1374179,10.9890066 13.7417013,11.3116168 13.3579568,11.6512937 L19.2013675,15.9510658 L19.6191178,19.7108191 L15.9001207,19.2981633 L11.585065,13.4394691 C11.2453881,13.8232136 10.9244336,14.222369 10.6222014,14.6366805 L13.8928811,19.0790991 L8.42646467,18.4626626 C8.2261228,18.9313581 8.04437592,19.4085869 7.88135139,19.8942217 L15.095187,20.6991554 L17.3367744,23.7558654 L13.9081646,25.2587478 L7.23434777,22.3294007 C7.13589623,22.8286634 7.0576954,23.338115 7,23.8577557 L12.0537606,26.068776 L7.01528355,28.2747017 C7.07641775,28.7841534 7.1562743,29.293605 7.25472583,29.8030567 L13.9030701,26.8635206 L17.3673415,28.3918756 L15.1512267,31.3976404 L7.91191849,32.2025741 C8.08513206,32.6882089 8.27197345,33.1670934 8.47231532,33.6392278 L13.9540153,33.0278858 L10.6935246,37.4550208 C10.9991956,37.8625821 11.3218059,38.2582987 11.6614828,38.6420432 L15.9612549,32.803727 L19.7210082,32.3859767 L19.3083523,36.1049739 L13.4445636,40.414935 C13.8283081,40.7546119 14.2274635,41.0755664 14.641775,41.3777986 L19.0841936,38.1071189 L18.4677571,43.5735353 C18.9364526,43.7738772 19.4136815,43.9556241 19.8993163,44.1186486 L20.7042499,36.9099075 L23.7609599,34.6683202 L25.2638423,38.0969299 L22.3344952,44.7656522 C22.8337579,44.8641038 23.3432095,44.9423046 23.8628502,45 L26.0738705,39.9462394 L28.2797962,44.9847164 C28.7892479,44.9235822 29.2986996,44.8437257 29.8081512,44.7452742 L26.8686151,38.0969299 L28.3969701,34.6326585 L31.402735,36.8487733 L32.2127631,44.0880815 C32.6950865,43.9148679 33.172188,43.7298096 33.6443223,43.5327792 L33.0329803,38.0510792 L37.4601153,41.3115699 C37.8676766,41.0058989 38.2633932,40.6832886 38.6471377,40.3436117 L32.803727,36.0387451 L32.3859767,32.2789918 L36.1049739,32.6967422 L40.4200295,38.5554364 C40.7597064,38.1716919 41.0806609,37.7725365 41.3828931,37.358225 L38.1122134,32.9158064 L43.5837244,33.5271484 C43.7840662,33.0584529 43.9658131,32.581224 44.1288376,32.0955892 L36.9099075,31.2957501 L34.6683202,28.2390401 L38.0969299,26.7361577 L44.7656522,29.6553157 Z M17.0973321,20.9029361 L19.7872369,21.2035125 L19.9400724,22.5841266 L18.7224829,23.0935782 L17.0973321,20.9029361 Z M19.8330875,27.5258077 L19.9298834,27.8722349 L19.6649685,27.755061 L19.8330875,27.5258077 Z M19.6293069,24.3519239 L19.8942217,24.23475 L19.8025204,24.5862716 L19.6293069,24.3519239 Z M15.7523797,26.0483979 L18.2385038,24.9785494 L19.0638155,26.0942486 L18.2741654,27.1640971 L15.7523797,26.0483979 Z M19.8891272,30.8678107 L17.1584663,31.1734817 L18.763239,28.9930286 L20.0368682,29.5636144 L19.8891272,30.8678107 Z M31.0970639,17.1126156 L30.7964875,19.8025204 L29.4158734,19.9553559 L28.9064218,18.7377665 L31.0970639,17.1126156 Z M30.5876123,21.2952138 L30.5570452,21.5805068 L30.2972248,21.3257809 L30.5876123,21.2952138 Z M27.6226036,19.6242124 L27.7397775,19.8891272 L27.3882558,19.7974259 L27.6226036,19.6242124 Z M25.9261295,15.7472852 L27.0214506,18.2334093 L25.9057514,19.058721 L24.8359029,18.2690709 L25.9261295,15.7472852 Z M24.2143719,19.659874 L24.4436252,19.827993 L24.097198,19.9247888 L24.2143719,19.659874 Z M22.9916879,18.7581445 L22.4363856,20.0317737 L21.1321893,19.8840327 L20.8265183,17.1533718 L22.9916879,18.7581445 Z M21.5856013,21.4123877 L21.3308755,21.6722081 L21.3003084,21.4123877 L21.5856013,21.4123877 Z M20.9080306,34.9026679 L21.2086071,32.2127631 L22.5892211,32.0599276 L23.0986727,33.2775171 L20.9080306,34.9026679 Z M21.4174822,30.6996916 L21.4480493,30.4143987 L21.7078697,30.6691245 L21.4174822,30.6996916 Z M24.382491,32.3706931 L24.2500335,32.1108728 L24.6015552,32.2025741 L24.382491,32.3706931 Z M26.078965,36.2476203 L24.9836439,33.7614962 L26.0993431,32.9361845 L27.1691916,33.7258346 L26.078965,36.2476203 Z M27.7907226,32.3350315 L27.5309023,32.1669125 L27.8773294,32.0701166 L27.7907226,32.3350315 Z M22.5515217,29.4240247 C21.6454619,28.5133798 21.1353734,27.2820351 21.1321893,25.9974527 C21.1321893,23.3076753 23.3127698,21.1270948 26.0025473,21.1270948 C28.6923247,21.1270948 30.8729052,23.3076753 30.8729052,25.9974527 C30.8729052,27.2891674 30.35976,28.5278992 29.4464405,29.4412187 C27.5376525,31.3405818 24.4507575,31.3328127 22.5515217,29.4240247 Z M30.6996916,30.5825178 L30.4143987,30.5825178 L30.6691245,30.3226974 L30.6996916,30.5825178 Z M28.9930286,33.2163829 L29.5687089,31.9682263 L30.8881888,32.1159673 L31.1938598,34.8466282 L28.9930286,33.2163829 Z M32.1159673,21.1270948 L34.8466282,20.8214238 L33.2418555,23.012066 L31.9682263,22.4312911 L32.1159673,21.1270948 Z M32.2025741,27.4086339 L32.3757876,27.6429816 L32.1108728,27.7601555 L32.2025741,27.4086339 Z M32.0752112,24.1226706 L32.340126,24.2398445 L32.172007,24.4690977 L32.0752112,24.1226706 Z M34.9077624,31.0919694 L32.2178576,30.7913929 L32.0650221,29.4107789 L33.2826116,28.9013273 L34.9077624,31.0919694 Z M33.7665907,27.0163561 L32.941279,25.9006569 L33.7309291,24.8308084 L36.2527148,25.9465076 L33.7665907,27.0163561 Z" id="Shape"></path>
                        </g>
                    </g>
                </g>
            </g>
        </g>
    </g>
</svg>