<?xml version="1.0" encoding="UTF-8"?>
<svg width="47px" height="56px" viewBox="0 0 47 56" version="1.1" xmlns="http://www.w3.org/2000/svg" xmlns:xlink="http://www.w3.org/1999/xlink">
    <!-- Generator: Sketch 52.6 (67491) - http://www.bohemiancoding.com/sketch -->
    <title>RIDEOUTS</title>
    <desc>Created with Sketch.</desc>
    <g id="Page-1" stroke="none" stroke-width="1" fill="none" fill-rule="evenodd">
        <g id="Laptop" transform="translate(-309.000000, -1309.000000)" fill="#F17B0B">
            <g id="Group-26" transform="translate(0.000000, 688.000000)">
                <g id="Group-14" transform="translate(187.000000, 599.000000)">
                    <g id="Group-15" transform="translate(0.000000, 22.000000)">
                        <g id="RIDEOUTS" transform="translate(122.000000, 0.000000)">
                            <path d="M9.99206376,38 C7.91465495,38 5.88538273,38.7275663 4.28134262,40.0464437 C2.42877625,41.5700115 1.27718925,43.7310265 1.04358073,46.1264129 C0.809972199,48.5228758 1.52094799,50.8655133 3.04609332,52.719877 C4.76055537,54.805075 7.298722,56 10.0091346,56 L10.0100573,56 C12.0883889,56 14.1158156,55.2741253 15.7200095,53.9555556 C19.5534039,50.8027682 20.1075129,45.1178777 16.9546436,41.2838139 C15.2403354,39.1969243 12.7024763,38 9.99206376,38 Z M13.1089459,50.7807766 C12.2380275,51.4992695 11.1345771,51.8925029 10.0065201,51.8925029 L10.0046746,51.8925029 C8.53120307,51.8925029 7.15062127,51.2422914 6.2189554,50.1082661 C5.38956055,49.1008074 5.00416031,47.827451 5.13057651,46.5253364 C5.25853062,45.2213764 5.88230691,44.0485967 6.88979174,43.2192234 C7.7634784,42.5027297 8.86508332,42.1074971 9.99498579,42.1074971 C11.4693801,42.1074971 12.8490391,42.7577086 13.7803974,43.8917339 C15.4947057,45.9767782 15.1931215,49.0666667 13.1089459,50.7807766 Z" id="Shape" fill-rule="nonzero"></path>
                            <path d="M44.9549085,25.28331 C43.2408335,23.1963913 40.7020954,22 37.9923344,22 C35.9134514,22 33.8845526,22.7272153 32.2812119,24.0470902 C28.4458057,27.1987664 27.8927493,32.883163 31.0456015,36.7173051 C32.7605992,38.80407 35.2974917,40 38.0081755,40 C40.0870586,40 42.1150346,39.2732461 43.7183753,37.955524 C47.5545504,34.800311 48.1068378,29.114069 44.9549085,25.28331 Z M41.1914796,34.8816594 C40.295762,35.6165636 39.1633498,36.0209992 38.0043306,36.0209992 C36.4897312,36.0209992 35.0749465,35.3525271 34.119094,34.1908895 C32.3588797,32.0495335 32.6673978,28.8775587 34.8079537,27.1184943 C35.7018258,26.3825138 36.8368525,25.9771555 37.9960255,25.9771555 C39.5078566,25.9771555 40.9244869,26.6447049 41.8812621,27.8078803 C43.6416302,29.9487749 43.3303437,33.1216724 41.1914796,34.8816594 Z" id="Shape" fill-rule="nonzero"></path>
                            <path d="M23.0602658,35.3847912 C22.8239242,35.0206915 22.0282035,34.2721139 19.6147457,32.0082319 C16.8060571,29.3716531 12.1925343,25.0409838 11.3784863,23.6984158 C12.0330077,23.1491617 15.081544,21.9331609 17.8097521,21.0217176 C18.1739063,20.8367224 18.653283,20.6340556 19.1304286,20.4323441 C19.6255826,20.2229907 20.120418,20.0136373 20.4984371,19.8205228 C21.3147162,19.405637 21.9448544,18.8358455 22.3778552,18.1242033 C24.6085188,18.5529399 31.4139788,19.8052392 33.0551429,20.0976971 L33.1298861,20.1115478 L33.2016014,20.1024732 C34.2322295,19.9771796 36.1376244,19.2128408 35.9921221,17.2076654 C35.8494884,15.2908483 34.1672076,14.3951661 33.2696512,14.1839023 C31.2896724,13.8306285 23.5903213,12.4033639 21.2979827,11.9520203 C20.0298974,10.8703878 18.339967,10.6920792 16.7356168,11.5113434 L2.95289867,18.5330394 C-0.0251973092,20.0507319 -0.541387863,23.0811815 0.477765762,25.2005063 C0.597769309,25.8887455 1.16161067,26.2606462 1.65915526,26.5895619 C1.82186923,26.6976614 1.98697371,26.8060794 2.13661957,26.9294626 L20.8936679,42.2458503 C21.4884265,42.7315819 22.2390463,43 23.0071965,43 C23.7841119,43 24.5369629,42.7314227 25.1336339,42.2428254 C25.301607,42.101293 25.45699,41.9446362 25.5996237,41.7746062 C26.7652359,40.3462272 26.5537555,38.2383652 25.1267811,37.0720361 L23.0602658,35.3847912 Z" id="Path"></path>
                            <path d="M21.0001526,10 C22.1521335,10 23.2811251,9.59551128 24.1737686,8.86113603 C25.2067094,8.01438532 25.8445818,6.81413979 25.9759038,5.48625211 C26.1054938,4.15647575 25.7093232,2.85786235 24.8612411,1.82444875 C23.9067156,0.665753813 22.4977592,0 20.9954288,0 C19.8409285,0 18.7144562,0.404488723 17.8213404,1.1383918 C15.6934194,2.88918268 15.3847969,6.04482428 17.1349701,8.1749217 C18.087921,9.33424619 19.4981371,10 21.0001526,10 Z" id="Path"></path>
                        </g>
                    </g>
                </g>
            </g>
        </g>
    </g>
</svg>