<?xml version="1.0" encoding="UTF-8"?>
<svg width="68px" height="41px" viewBox="0 0 68 41" version="1.1" xmlns="http://www.w3.org/2000/svg" xmlns:xlink="http://www.w3.org/1999/xlink">
    <!-- Generator: Sketch 52.6 (67491) - http://www.bohemiancoding.com/sketch -->
    <title>SUPPORT</title>
    <desc>Created with Sketch.</desc>
    <g id="Page-1" stroke="none" stroke-width="1" fill="none" fill-rule="evenodd">
        <g id="Laptop" transform="translate(-664.000000, -1323.000000)" fill="#F17B0B">
            <g id="Group-26" transform="translate(0.000000, 688.000000)">
                <g id="Group-14" transform="translate(187.000000, 599.000000)">
                    <g id="Group-15-Copy" transform="translate(353.000000, 0.000000)">
                        <g id="SUPPORT" transform="translate(124.000000, 36.000000)">
                            <path d="M55.9444104,16.4617235 C50.8403842,16.4617235 46.4878398,19.6954305 44.7290006,24.2544852 C43.6452074,24.0702012 42.7310443,24.0067625 42.1731044,24.1585993 L42.0833844,22.7800047 C42.0833844,22.7800047 44.250562,22.4126845 44.6114858,19.1958252 C44.9724096,15.9787578 51.5644799,8.5341806 56.8027795,7.70719025 C62.0400572,6.87999189 66.5556918,5.04151911 66.5556918,5.04151911 C66.5556918,5.04151911 63.2147966,5.6844334 56.8927039,6.4201137 C50.5706111,7.15558601 44.5205395,16.437388 40.63785,16.8059561 C36.7549561,17.1732763 33.7414674,14.6178428 24.7435111,7.52290618 C24.4138565,7.2639517 24.1011649,7.15038613 23.8158594,7.12230672 L24.4602493,5.59832324 C23.370325,4.98868824 22.6204782,3.82287311 22.6204782,2.46840601 C22.6204782,2.30845742 22.6464337,2.15495669 22.6670754,2 C22.5824647,2.10233382 22.5025547,2.20945153 22.4469651,2.34028074 L16.5583487,16.252272 C15.1661557,15.6809081 13.6490905,15.358931 12.0547721,15.358931 C5.39771102,15.358931 0,20.8510538 0,27.6277573 C0,34.4032127 5.39771102,39.8972075 12.055794,39.8972075 C18.713877,39.8972075 24.111588,34.4044607 24.111588,27.6277573 C24.111588,23.6146909 22.2109135,20.0637906 19.2859187,17.8257584 L22.3351727,10.6210001 C22.9258124,11.422615 25.6576742,15.265125 27.18271,19.8385314 C28.8982219,24.9855896 30.1628858,29.5802116 37.8385449,27.8342969 C39.7995095,27.3875224 41.9074188,27.2980843 43.9605559,27.4089459 C43.9160025,27.8430327 43.888412,28.2833593 43.888412,28.7305497 C43.888412,35.5060052 49.2857143,41 55.944206,41 C62.6029021,41 68,35.5072532 68,28.7305497 C68.0002044,21.9530143 62.6031065,16.4617235 55.9444104,16.4617235 Z M20.8606172,27.6277573 C20.8606172,32.5680679 16.9104844,36.5886221 12.055794,36.5886221 C7.20110362,36.5886221 3.25097077,32.5693159 3.25097077,27.6277573 C3.25097077,22.6864067 7.20110362,18.6664764 12.055794,18.6664764 C13.1912937,18.6664764 14.2738606,18.8938156 15.270795,19.2937911 L12.0091968,27.0000267 C11.7384018,27.638573 11.9648477,28.3515818 12.5139996,28.5928567 L13.3854486,28.9751525 C13.9348048,29.2164274 14.6002452,28.8934103 14.8702228,28.2546559 L17.9466585,20.9879149 C19.7314531,22.6294159 20.8606172,24.9934935 20.8606172,27.6277573 Z M55.9444104,37.6916226 C51.0891069,37.6916226 47.1397915,33.6721083 47.1397915,28.7307577 C47.1397915,28.3969249 47.1610464,28.0672519 47.1955855,27.7419468 C51.7854077,28.4160605 55.4469651,29.7647037 55.4469651,29.7647037 C55.4469651,29.7647037 57.4344983,30.6834201 58.247292,29.0292314 C59.0600858,27.3748347 56.5315757,27.3748347 54.8152463,27.0075145 C53.8734927,26.8049268 50.8647047,25.7743088 47.9534028,24.9914135 C49.3492745,21.9153671 52.4013897,19.7705169 55.9444104,19.7705169 C60.7999183,19.7705169 64.7492336,23.7906551 64.7492336,28.7309657 C64.7492336,33.6721083 60.7999183,37.6916226 55.9444104,37.6916226 Z" id="Shape" fill-rule="nonzero"></path>
                            <path d="M24.1305951,1.30539376 C24.0499581,1.52248441 24,1.75466244 24,1.9999162 C24,2.72696032 24.3919531,3.35710993 24.9713328,3.70747245 C25.2729254,3.88969448 25.6224644,4 26,4 C27.1051132,4 28,3.10498304 28,1.9999162 C28,0.894849366 27.1051132,3.86748887e-08 26,3.86748887e-08 C25.1406538,-0.000167598891 24.4140821,0.54465449 24.1305951,1.30539376 Z" id="Path"></path>
                        </g>
                    </g>
                </g>
            </g>
        </g>
    </g>
</svg>